<?xml version="1.0" encoding="utf-8"?>
<!-- Generator: Adobe Illustrator 18.0.0, SVG Export Plug-In . SVG Version: 6.00 Build 0)  -->
<!DOCTYPE svg PUBLIC "-//W3C//DTD SVG 1.1//EN" "http://www.w3.org/Graphics/SVG/1.1/DTD/svg11.dtd">
<svg version="1.1" id="Layer_1" xmlns="http://www.w3.org/2000/svg" xmlns:xlink="http://www.w3.org/1999/xlink" x="0px" y="0px"
	 viewBox="0 0 437.4 162.6" enable-background="new 0 0 437.4 162.6" xml:space="preserve">
<g id="Page-1_2_">
	<g id="Imported-Layers_2_" transform="translate(1.000000, 1.000000)">
		<path id="Fill-1_2_" fill="#DD0000" d="M-1-1l437.4,30.9v100.7L-1,161.6V-1z"/>
		<path id="Fill-2_2_" fill="#FFFFFF" d="M399.6,120.1l-107.2,5.7c0,0-15.1,2-15.1-16.2V54.2c0-21.6,15.1-19.5,15.1-19.5l108.1,5.8
			c11.4,0.6,11.2,17.8,11.2,17.8v2.9l-37.6-1v-3.3c0,0-0.5-8.4-7.3-8.7l-32.5-1.3c-9.3-0.4-9.1,10.6-9.1,10.6v44.2
			c0,0-1.1,12.6,8.5,12.2l32.8-1.4c7.1-0.3,7.8-10.5,7.8-10.5V86.5l-23.2,0.2v-9.9l60.6,0.3v25.8
			C411.7,102.9,411.7,119.5,399.6,120.1"/>
		<path id="Fill-3_2_" fill="#FFFFFF" d="M119.2,135.2L27.6,20.5l94.3,5l41.9,73.1L205.2,30l66.9,3.6l-66.5,97L119.2,135.2"/>
	</g>
</g>
</svg>
